PathFileType	4	(X/Y/Z)	E:\Qualisys_Data\Carbon_Farble_Plate\Data\Amateur_Runner\S14\T1\S14T1V25_c3d.trc
DataRate	CameraRate	NumFrames	NumMarkers	Units	OrigDataRate	OrigDataStartFrame	OrigNumFrames
200.000000	200.000000	4	39	mm	200.000000	265	303
Frame#	Time	LSHO			RSHO			LICST			RICST			LASIS			LHEEL			RASIS			LTROC			RTROC			SACR			LTH1			LSK4			LTH2			LTH3			RHM5			LSK2			LTH4			RTH1			LTOE			RTH2			RTH3			RTH4			LLEP			RLEP			LSK1			LSK3			RSK1			LHM5			RSK2			LFT1			RSK3			RSK4			LLME			RLME			RTOE			RHEEL			RFT1			RFT2			LFT2			
		X1	Y1	Z1	X2	Y2	Z2	X3	Y3	Z3	X4	Y4	Z4	X5	Y5	Z5	X6	Y6	Z6	X7	Y7	Z7	X8	Y8	Z8	X9	Y9	Z9	X10	Y10	Z10	X11	Y11	Z11	X12	Y12	Z12	X13	Y13	Z13	X14	Y14	Z14	X15	Y15	Z15	X16	Y16	Z16	X17	Y17	Z17	X18	Y18	Z18	X19	Y19	Z19	X20	Y20	Z20	X21	Y21	Z21	X22	Y22	Z22	X23	Y23	Z23	X24	Y24	Z24	X25	Y25	Z25	X26	Y26	Z26	X27	Y27	Z27	X28	Y28	Z28	X29	Y29	Z29	X30	Y30	Z30	X31	Y31	Z31	X32	Y32	Z32	X33	Y33	Z33	X34	Y34	Z34	X35	Y35	Z35	X36	Y36	Z36	X37	Y37	Z37	X38	Y38	Z38	X39	Y39	Z39	

266	1.325	2628.0439453125	1429.147705078125	-545.7132568359375	2607.19873046875	1434.174560546875	-248.0087890625	2598.197998046875	973.5682983398438	-520.4705200195312	2631.892578125	979.8521728515624	-246.2956237792969	2642.184326171875	924.2891235351562	-498.5324401855469	2156.835693359375	196.5108184814453	-383.8021545410156	2655.53857421875	938.7529907226562	-263.931884765625	2482.804443359375	856.5095825195312	-527.1988525390625	2528.766357421875	880.9664916992188	-204.2821044921875	2475.533935546875	977.0130004882812	-379.4271240234375	2531.02734375	626.9659423828125	-533.517333984375	2304.5029296875	345.2273864746094	-472.2651977539062	2458.034912109375	638.9172973632812	-505.4938354492188	2526.708740234375	529.2584228515625	-509.3389587402344	2648.4208984375	123.8715896606445	-206.1556091308594	2370.082763671875	416.2884826660156	-496.9331359863281	2450.251708984375	542.1641845703125	-487.5399475097656	2773.07470703125	726.8589477539062	-220.7359619140625	2340.85400390625	42.17164993286133	-423.7922058105469	2709.31640625	684.7317504882812	-206.3621368408203	2828.245849609375	646.0591430664062	-247.7676696777344	2760.89453125	599.0574340820312	-223.7859497070312	2481.710205078125	465.698974609375	-499.9715270996094	2813.839111328125	554.0281372070312	-233.8480834960938	2430.865966796875	361.0998229980469	-495.4556274414062	2359.7822265625	289.1685180664062	-476.9053344726562	2782.52099609375	441.9395446777344	-226.4320373535156	2272.519775390625	53.33895874023438	-478.4977722167969	2712.835693359375	489.6744995117188	-216.8213043212891	2158.20849609375	171.9315490722656	-354.7819213867188	2716.452392578125	360.9686889648438	-228.7673645019531	2657.04443359375	410.3070373535156	-218.6997985839844	2215.97802734375	182.8997039794922	-446.0604858398438	2579.360107421875	251.9566040039062	-226.4149017333984	2702.856689453125	85.51525115966797	-272.90771484375	2510.123291015625	262.580078125	-272.6502990722656	2501.620849609375	229.8314819335938	-299.5821533203125	2500.982666015625	243.8531951904297	-243.8935852050781	2140.2890625	173.0596771240234	-406.7001342773438
267	1.33	2649.097412109375	1433.616088867188	-544.3839721679688	2625.029541015625	1438.29833984375	-247.7219696044922	2620.082275390625	976.8751831054688	-519.8648071289062	2651.0126953125	984.2489624023438	-245.9285278320312	2664.222900390625	927.6148681640624	-498.3385314941406	2170.408447265625	206.6823883056641	-387.3464050292969	2679.251708984375	944.00439453125	-266.4107055664062	2503.810791015625	861.642822265625	-527.3837280273438	2550.798583984375	885.761474609375	-203.6774444580078	2497.3681640625	980.425537109375	-380.2583618164062	2546.93359375	631.4951171875	-534.4212036132812	2315.588134765625	352.2015075683594	-474.5137023925781	2474.405517578125	645.4539184570312	-506.0884399414062	2540.13623046875	533.7529907226562	-512.0429077148438	2693.65771484375	119.2271194458008	-207.7737884521484	2381.119384765625	423.1023864746094	-497.9078979492188	2464.663818359375	547.9862060546875	-488.889404296875	2794.863525390625	731.1857299804688	-221.3226776123047	2344.416748046875	40.70468521118164	-425.0556640625	2730.438232421875	688.8367309570312	-206.4959411621094	2849.57958984375	650.4378662109375	-248.1082305908203	2783.120849609375	603.4187622070312	-225.4806671142578	2493.741455078125	471.0263977050781	-501.2028198242188	2836.303466796875	557.0828857421875	-235.1050872802734	2442.031494140625	367.4054870605469	-498.2308959960938	2370.501708984375	295.957763671875	-480.0921936035156	2808.711669921875	443.1553344726562	-226.6796264648438	2276.8994140625	55.43508148193359	-479.66162109375	2735.3759765625	487.3605651855469	-215.6439971923828	2168.6640625	182.1021575927734	-357.4972839355469	2749.005615234375	358.0074768066406	-230.6632232666016	2685.418701171875	404.1871337890625	-218.1974487304688	2226.100830078125	189.9243011474609	-449.4266052246094	2616.803466796875	241.6182708740234	-226.8391418457031	2750.502685546875	83.67036437988281	-274.6979064941406	2549.122314453125	248.2496337890625	-273.45361328125	2541.045166015625	215.0798034667969	-301.3027954101562	2540.010009765625	228.8536834716797	-244.4513397216797	2150.60302734375	183.2965850830078	-409.9728393554688
268	1.335	2670.65087890625	1438.033935546875	-542.4176025390625	2642.833251953125	1442.138671875	-247.4357757568359	2643.130126953125	980.46435546875	-519.7691040039062	2670.28466796875	988.2344360351562	-245.3860168457031	2684.03662109375	930.3134155273438	-495.5527954101562	2184.434814453125	216.6890411376953	-391.6761779785156	2700.808349609375	948.52587890625	-266.1539611816406	2524.754638671875	866.5707397460938	-527.8760375976562	2572.012451171875	890.2553100585938	-202.9998779296875	2519.485107421875	983.8617553710938	-380.3454284667969	2563.324462890625	636.0458374023438	-535.0104370117188	2326.56005859375	359.0547790527344	-476.0397033691406	2490.196044921875	651.0430908203125	-506.2283935546875	2554.0	538.060791015625	-512.9746704101562	2738.557861328125	112.156867980957	-207.3094635009766	2392.89599609375	430.1549072265625	-499.4033203125	2478.681884765625	554.013916015625	-490.17578125	2815.73681640625	734.2727661132812	-221.0115661621094	2347.1904296875	38.64501571655273	-424.799560546875	2751.494873046875	693.9900512695312	-206.1080017089844	2870.734619140625	653.2493286132812	-247.8106536865234	2803.51171875	607.6572265625	-225.5178527832031	2506.69287109375	476.9168090820312	-503.1045837402344	2859.07421875	559.5164794921875	-236.7668609619141	2453.390625	374.21875	-499.9530639648438	2381.544189453125	302.3458862304688	-482.7774963378906	2834.866943359375	444.2714538574219	-226.0667114257812	2280.600830078125	56.94406127929688	-480.2984924316406	2759.688232421875	483.6946716308594	-215.0957794189453	2179.59814453125	192.6058502197266	-360.7376708984375	2779.609619140625	356.1585083007812	-230.995849609375	2714.26708984375	398.1799011230469	-218.0371398925781	2236.061767578125	196.0872192382812	-453.0816650390625	2654.393310546875	231.6203155517578	-227.8025665283203	2797.822265625	82.7403335571289	-276.9195556640625	2586.5947265625	234.5308074951172	-274.3977661132812	2581.2080078125	201.3524627685547	-302.7443542480469	2577.94189453125	213.9979553222656	-245.4175109863281	2162.1064453125	194.20166015625	-413.6726379394531
269	1.34	2690.9873046875	1442.111328125	-541.0005493164062	2660.450927734375	1446.027709960938	-246.8373413085938	2665.595458984375	984.3424072265624	-519.3033447265625	2694.081787109375	993.7306518554688	-245.6015014648438	2706.215576171875	933.6927490234376	-495.2378845214844	2197.805419921875	226.3475799560547	-395.0477294921875	2722.708984375	953.2203979492188	-266.0587768554688	2545.197021484375	870.7333374023438	-528.1477661132812	2593.384521484375	894.5796508789062	-202.9191589355469	2540.9287109375	987.4864501953124	-380.7575378417969	2578.880126953125	640.3760375976562	-536.0320434570312	2338.313232421875	365.8497619628906	-477.5848693847656	2506.65576171875	656.7166748046875	-506.60546875	2568.139892578125	542.9256591796875	-514.4876708984375	2783.693603515625	107.5194931030273	-208.5706634521484	2405.042236328125	436.2101135253906	-500.2527770996094	2493.115478515625	559.8333129882812	-490.8641662597656	2836.737060546875	737.5191650390625	-221.2905731201172	2350.745361328125	37.13265609741211	-425.285400390625	2772.828125	696.2679443359375	-207.3014373779297	2891.647705078125	656.4900512695312	-247.8134613037109	2824.192138671875	610.7659912109375	-226.1891479492188	2519.14208984375	482.3352355957031	-504.0682067871094	2881.9443359375	560.5118408203125	-238.5256195068359	2464.840087890625	380.5630493164062	-502.2885437011719	2393.064208984375	308.9013671875	-485.3478698730469	2860.078369140625	445.3521118164062	-225.5788879394531	2285.7822265625	59.75331878662109	-481.4644165039062	2783.4384765625	479.4243469238281	-214.5477752685547	2191.4072265625	203.3300170898438	-364.1162719726562	2810.143310546875	353.5556945800781	-230.6743011474609	2740.901611328125	393.08447265625	-216.7626342773438	2247.96533203125	202.8402404785156	-455.8641052246094	2692.582275390625	222.4398040771484	-228.4940185546875	2844.641845703125	81.75920867919922	-277.3726196289062	2623.73388671875	221.7691802978516	-274.3417053222656	2621.33642578125	187.6275177001953	-304.3172302246094	2615.64990234375	201.2092895507812	-246.8948211669922	2174.96923828125	204.8936157226562	-417.2862854003906
